<?xml version="1.0" encoding="UTF-8"?><svg id="a" xmlns="http://www.w3.org/2000/svg" viewBox="0 0 97.1985 97.0847">
<title>Spring_Boot_symbol-logo - brandlogos.net</title><g id="b"><g id="c"><path d="M88.5029,5.68c-1.3496,3.2371-3.0963,6.2939-5.2,9.1C64.7019-4.4632,34.0231-4.9838,14.78,13.6172c-19.2432,18.601-19.7637,49.2798-1.1628,68.5229.6432.6654,1.3054,1.3123,1.9857,1.9398l1.8,1.6c20.438,17.2368,50.9795,14.6417,68.2163-5.7963,6.6111-7.8389,10.5622-17.5746,11.2837-27.8037,1.4-12.2-2.3-27.8-8.4-46.4ZM22.6029,84.48c-1.4362,1.7649-4.0312,2.0314-5.7961.5952-1.7649-1.4362-2.0314-4.0312-.5952-5.7961,1.4347-1.763,4.0261-2.0311,5.7913-.5991,1.7232,1.4595,1.9879,4.0186.6,5.8ZM88.2029,69.98c-11.9,15.9-37.5,10.5-53.8,11.3,0,0-2.9.2-5.8.6,0,0,1.1-.5,2.5-1,11.5-4,16.9-4.8,23.9-8.4,13.1-6.7,26.2-21.4,28.8-36.6-5,14.6-20.2,27.2-34,32.3-9.5,3.5-26.6,6.9-26.6,6.9l-.7-.4c-11.6-5.7-12-30.9,9.2-39,9.3-3.6,18.1-1.6,28.2-4,10.7-2.5,23.1-10.5,28.1-21,5.6,16.9,12.4,43.1.2,59.3Z" style="fill:#6db33f;"/></g></g></svg>